<mxfile host="app.diagrams.net" modified="2024-02-28T14:19:50.059Z" agent="Mozilla/5.0 (Windows NT 10.0; Win64; x64) AppleWebKit/537.36 (KHTML, like Gecko) Chrome/122.0.0.0 Safari/537.36 Edg/122.0.0.0" etag="GCosb0iJTaiynJ6_2v6d" version="23.1.6" type="device">
  <diagram name="Сторінка-1" id="_XXKR_IUMBMaYtfP8-WY">
    <mxGraphModel dx="868" dy="526" grid="1" gridSize="10" guides="1" tooltips="1" connect="1" arrows="1" fold="1" page="1" pageScale="1" pageWidth="827" pageHeight="1169" math="0" shadow="0">
      <root>
        <mxCell id="0" />
        <mxCell id="1" parent="0" />
        <mxCell id="srvnr3A5TYxj8ltDzy_6-12" value="&lt;p style=&quot;margin:0px;margin-top:4px;text-align:center;&quot;&gt;&lt;b&gt;My PC&lt;/b&gt;&lt;/p&gt;&lt;hr size=&quot;1&quot;&gt;&lt;div style=&quot;height:2px;&quot;&gt;&lt;/div&gt;" style="verticalAlign=top;align=left;overflow=fill;html=1;whiteSpace=wrap;" parent="1" vertex="1">
          <mxGeometry x="150" y="190" width="570" height="440" as="geometry" />
        </mxCell>
        <mxCell id="srvnr3A5TYxj8ltDzy_6-14" value="&lt;p style=&quot;margin:0px;margin-top:4px;text-align:center;&quot;&gt;&lt;b&gt;Music&lt;/b&gt;&lt;/p&gt;&lt;hr size=&quot;1&quot;&gt;&lt;div style=&quot;height:2px;&quot;&gt;&lt;/div&gt;" style="verticalAlign=top;align=left;overflow=fill;html=1;whiteSpace=wrap;" parent="1" vertex="1">
          <mxGeometry x="190" y="290" width="110" height="60" as="geometry" />
        </mxCell>
        <mxCell id="srvnr3A5TYxj8ltDzy_6-16" value="my_music.ogg" style="html=1;whiteSpace=wrap;" parent="1" vertex="1">
          <mxGeometry x="200" y="210" width="90" height="40" as="geometry" />
        </mxCell>
        <mxCell id="srvnr3A5TYxj8ltDzy_6-17" value="&lt;p style=&quot;margin:0px;margin-top:4px;text-align:center;&quot;&gt;&lt;b&gt;TextureManager&lt;/b&gt;&lt;br&gt;&lt;/p&gt;&lt;hr size=&quot;1&quot;&gt;&lt;div style=&quot;height:2px;&quot;&gt;&lt;/div&gt;" style="verticalAlign=top;align=left;overflow=fill;html=1;whiteSpace=wrap;" parent="1" vertex="1">
          <mxGeometry x="560" y="290" width="110" height="60" as="geometry" />
        </mxCell>
        <mxCell id="srvnr3A5TYxj8ltDzy_6-18" value="My_pictures.png" style="html=1;whiteSpace=wrap;" parent="1" vertex="1">
          <mxGeometry x="570" y="210" width="90" height="40" as="geometry" />
        </mxCell>
        <mxCell id="srvnr3A5TYxj8ltDzy_6-20" value="Use" style="endArrow=open;endSize=12;dashed=1;html=1;rounded=0;" parent="1" source="srvnr3A5TYxj8ltDzy_6-17" target="srvnr3A5TYxj8ltDzy_6-18" edge="1">
          <mxGeometry width="160" relative="1" as="geometry">
            <mxPoint x="255" y="300" as="sourcePoint" />
            <mxPoint x="255" y="270" as="targetPoint" />
            <mxPoint as="offset" />
          </mxGeometry>
        </mxCell>
        <mxCell id="srvnr3A5TYxj8ltDzy_6-21" value="player" style="shape=umlActor;verticalLabelPosition=bottom;verticalAlign=top;html=1;" parent="1" vertex="1">
          <mxGeometry x="430" y="640" width="30" height="60" as="geometry" />
        </mxCell>
        <mxCell id="srvnr3A5TYxj8ltDzy_6-22" value="&lt;p style=&quot;margin:0px;margin-top:4px;text-align:center;&quot;&gt;&lt;b&gt;MainWindow&lt;/b&gt;&lt;/p&gt;&lt;hr size=&quot;1&quot;&gt;&lt;div style=&quot;height:2px;&quot;&gt;&lt;/div&gt;" style="verticalAlign=top;align=left;overflow=fill;html=1;whiteSpace=wrap;" parent="1" vertex="1">
          <mxGeometry x="390" y="500" width="110" height="60" as="geometry" />
        </mxCell>
        <mxCell id="srvnr3A5TYxj8ltDzy_6-23" value="" style="endArrow=none;html=1;rounded=0;exitX=0.5;exitY=0;exitDx=0;exitDy=0;exitPerimeter=0;" parent="1" source="srvnr3A5TYxj8ltDzy_6-21" edge="1" target="srvnr3A5TYxj8ltDzy_6-22">
          <mxGeometry width="50" height="50" relative="1" as="geometry">
            <mxPoint x="390" y="460" as="sourcePoint" />
            <mxPoint x="445" y="450" as="targetPoint" />
          </mxGeometry>
        </mxCell>
        <mxCell id="tj_fheMfcyJL5-H8PUYg-1" value="&lt;p style=&quot;margin:0px;margin-top:4px;text-align:center;&quot;&gt;&lt;b&gt;CreateGame&lt;/b&gt;&lt;/p&gt;&lt;hr size=&quot;1&quot;&gt;&lt;div style=&quot;height:2px;&quot;&gt;&lt;/div&gt;" style="verticalAlign=top;align=left;overflow=fill;html=1;whiteSpace=wrap;" vertex="1" parent="1">
          <mxGeometry x="390" y="360" width="110" height="60" as="geometry" />
        </mxCell>
        <mxCell id="tj_fheMfcyJL5-H8PUYg-3" value="" style="endArrow=open;endFill=1;endSize=12;html=1;rounded=0;exitX=0.5;exitY=0;exitDx=0;exitDy=0;entryX=0.5;entryY=1;entryDx=0;entryDy=0;" edge="1" parent="1" source="srvnr3A5TYxj8ltDzy_6-22" target="tj_fheMfcyJL5-H8PUYg-1">
          <mxGeometry width="160" relative="1" as="geometry">
            <mxPoint x="370" y="370" as="sourcePoint" />
            <mxPoint x="530" y="370" as="targetPoint" />
          </mxGeometry>
        </mxCell>
        <mxCell id="tj_fheMfcyJL5-H8PUYg-5" value="Use" style="endArrow=open;endSize=12;dashed=1;html=1;rounded=0;exitX=0.75;exitY=0;exitDx=0;exitDy=0;" edge="1" parent="1" source="srvnr3A5TYxj8ltDzy_6-14" target="srvnr3A5TYxj8ltDzy_6-16">
          <mxGeometry width="160" relative="1" as="geometry">
            <mxPoint x="625" y="300" as="sourcePoint" />
            <mxPoint x="625" y="260" as="targetPoint" />
            <mxPoint as="offset" />
          </mxGeometry>
        </mxCell>
        <mxCell id="tj_fheMfcyJL5-H8PUYg-6" value="1" style="endArrow=open;html=1;endSize=12;startArrow=diamondThin;startSize=14;startFill=1;edgeStyle=orthogonalEdgeStyle;align=left;verticalAlign=bottom;rounded=0;exitX=0;exitY=0.5;exitDx=0;exitDy=0;" edge="1" parent="1" source="tj_fheMfcyJL5-H8PUYg-1" target="srvnr3A5TYxj8ltDzy_6-14">
          <mxGeometry x="-1" y="3" relative="1" as="geometry">
            <mxPoint x="370" y="450" as="sourcePoint" />
            <mxPoint x="530" y="450" as="targetPoint" />
          </mxGeometry>
        </mxCell>
        <mxCell id="tj_fheMfcyJL5-H8PUYg-7" value="1" style="endArrow=open;html=1;endSize=12;startArrow=diamondThin;startSize=14;startFill=1;edgeStyle=orthogonalEdgeStyle;align=left;verticalAlign=bottom;rounded=0;exitX=1;exitY=0.5;exitDx=0;exitDy=0;entryX=0.5;entryY=1;entryDx=0;entryDy=0;" edge="1" parent="1" source="tj_fheMfcyJL5-H8PUYg-1" target="srvnr3A5TYxj8ltDzy_6-17">
          <mxGeometry x="-1" y="3" relative="1" as="geometry">
            <mxPoint x="400" y="400" as="sourcePoint" />
            <mxPoint x="255" y="360" as="targetPoint" />
          </mxGeometry>
        </mxCell>
      </root>
    </mxGraphModel>
  </diagram>
</mxfile>
